<svg xmlns="http://www.w3.org/2000/svg" width="211.871" height="90.186" viewBox="0 0 211.871 90.186">
  <g id="Group_622" data-name="Group 622" transform="translate(-17899 -6431.907)">
    <path id="Path_19563" data-name="Path 19563" d="M807.311,351.514c-4.324.214-7.69-2.165-11.323-3.648-4.341-1.772-8.631-3.687-12.861-5.711-6.827-3.266-13.316-2.2-19.812,1.023-4.206,2.083-8.549,3.891-12.841,5.8-7.055,3.143-13.569,2.271-19.613-2.555a2.875,2.875,0,0,1-1.112-3.026,43.009,43.009,0,0,1,1.9-8.165c.707-1.753,1.663-2.346,3.323-1.359,5.306,3.155,10.561,2.344,15.857-.053,4.847-2.194,9.832-4.1,14.584-6.481,7.291-3.647,14.107-2.141,20.983,1.131,4.99,2.374,10.113,4.472,15.168,6.708,4.385,1.94,8.75,2.012,12.915-.45,1.99-1.177,2.638-.3,3.013,1.413.643,2.941,1.261,5.889,1.82,8.847.174.918.237,2-.78,2.51C814.923,349.309,811.544,351.807,807.311,351.514Zm-75.75,10.019c.931,5.151,3.571,9.513,6.461,13.735,2.966,4.332,4.167,4.729,9.135,3.118,6.375-2.068,12.341-5.118,18.434-7.849,5.971-2.678,11.708-2.849,17.75.094,6.455,3.144,13.181,5.735,19.811,8.518,1.455.611,3.388,1.268,4.494.147a33.158,33.158,0,0,0,9.2-16.57c-1.4.622-2.248,1.008-3.1,1.372-4.038,1.722-7.933,2.586-12.254.309-4.961-2.615-10.291-4.517-15.36-6.94-6.2-2.963-12.314-5.078-19.143-1.756-5.628,2.739-11.428,5.128-17.164,7.641a18.459,18.459,0,0,1-11.541,1.252c-2.451-.529-4.1-2.88-6.72-3.075ZM766.379,304.6a44.271,44.271,0,0,0-24.819,13.554c-.828.887-2.381,1.772-1.8,3.006.631,1.343,2.393.909,3.735.875a7.742,7.742,0,0,0,1.217-.254c6.333-1.25,11.924-4.418,17.631-7.14,7.215-3.443,14.185-5.2,21.771-1.192a132.872,132.872,0,0,0,13.116,5.907c3.343,1.326,6.413,3.625,10.285,3.337.781-.058,1.779.338,2.237-.634.373-.791-.289-1.369-.721-1.932A39.812,39.812,0,0,0,789,306.463a46.041,46.041,0,0,0-19.85-2.238C768.227,304.348,767.294,304.429,766.379,304.6Zm27.26,85.236c-3.6-2.687-7.427-3.783-10.96-5.418-4.5-2.083-9.3-2.963-14.158-.879-4.4,1.888-8.785,3.817-13.783,5.992C768.063,395.909,780.637,395.273,793.639,389.836Zm-62.075-28.306-.224-.126.222.128Z" transform="translate(17169.324 6127.978)" fill="#ce892c"/>
    <g id="Group_621" data-name="Group 621" transform="translate(17511 6367.176)">
      <text id="Culture" transform="translate(548.871 132.093)" fill="#535c44" font-size="44" font-family="raustila-Regular, raustila"><tspan x="-49.861" y="0">Culture</tspan></text>
      <text id="breaking_borders" data-name="breaking borders" transform="translate(548.871 151.917)" fill="#b59745" font-size="11" font-family="JMHTypewriterdry-Regular, JMH Typewriter dry"><tspan x="-50.676" y="0">breaking borders</tspan></text>
    </g>
  </g>
</svg>
