<svg xmlns="http://www.w3.org/2000/svg" width="1000.001" height="1000.001" viewBox="0 0 1000.001 1000.001">
  <g id="Group_3744" data-name="Group 3744" transform="translate(-2420.045 4624.727)">
    <path id="Path_7633" data-name="Path 7633" d="M2820.046-3824.726c-110.457,0-200-89.543-200-200v-200c0-110.457,89.543-200,200-200h569.227a29.771,29.771,0,0,0,29.772-29.772v-140.456a29.772,29.772,0,0,0-29.772-29.772H2920.046c-276.143,0-500,223.858-500,500V-3654.5a29.773,29.773,0,0,0,29.772,29.772h470.229a503.85,503.85,0,0,0,74.693-5.545,29.753,29.753,0,0,0,25.306-29.442v-135.241a29.771,29.771,0,0,0-29.772-29.772Z" fill="#a2aace"/>
    <path id="Path_7634" data-name="Path 7634" d="M3413.411-4206.363a21.9,21.9,0,0,0-21.609-18.364H2849.817a29.773,29.773,0,0,0-29.772,29.772V-4054.5a29.773,29.773,0,0,0,29.772,29.772h348.341a21.887,21.887,0,0,1,21.887,21.887v231.627c0,19.028,22.593,28.978,36.659,16.161,100.359-91.446,163.342-223.2,163.342-369.676A503.347,503.347,0,0,0,3413.411-4206.363Z" fill="#a2aace"/>
  </g>
</svg>
