<svg xmlns="http://www.w3.org/2000/svg" width="76.001" height="76.001" viewBox="0 0 76.001 76.001">
  <g id="Group_3704" data-name="Group 3704" transform="translate(-2420.045 4624.727)">
    <path id="Path_7633" data-name="Path 7633" d="M2450.445-4563.926a15.2,15.2,0,0,1-15.2-15.2v-15.2a15.2,15.2,0,0,1,15.2-15.2h43.262a2.262,2.262,0,0,0,2.263-2.263v-10.675a2.263,2.263,0,0,0-2.263-2.263h-35.662a38,38,0,0,0-38,38v35.738a2.263,2.263,0,0,0,2.263,2.263h35.738a38.316,38.316,0,0,0,5.677-.421,2.262,2.262,0,0,0,1.923-2.238v-10.278a2.263,2.263,0,0,0-2.263-2.263Z" fill="#eff2ff"/>
    <path id="Path_7634" data-name="Path 7634" d="M2865.141-4223.331a1.665,1.665,0,0,0-1.642-1.4h-41.191a2.263,2.263,0,0,0-2.263,2.263v10.675a2.262,2.262,0,0,0,2.263,2.263h26.474a1.663,1.663,0,0,1,1.664,1.664v17.6a1.664,1.664,0,0,0,2.786,1.228,37.9,37.9,0,0,0,12.414-28.1A38.261,38.261,0,0,0,2865.141-4223.331Z" transform="translate(-369.6 -369.6)" fill="#eff2ff"/>
  </g>
</svg>
