<?xml version="1.0" encoding="utf-8"?>
<!-- Generator: Adobe Illustrator 24.0.1, SVG Export Plug-In . SVG Version: 6.00 Build 0)  -->
<svg version="1.1" id="Layer_1" xmlns="http://www.w3.org/2000/svg" xmlns:xlink="http://www.w3.org/1999/xlink" x="0px" y="0px"
	 viewBox="0 0 289.7 123.7" style="enable-background:new 0 0 289.7 123.7;" xml:space="preserve">
<style type="text/css">
	.st0{fill:#CE892C;}
	.st1{enable-background:new    ;}
	.st2{fill:#535C44;}
	.st3{fill:#B59745;}
</style>
<g id="Group_622" transform="translate(-17899 -6431.907)">
	<path id="Path_19563" class="st0" d="M18005.5,6497.2c-5.9,0.3-10.5-3-15.5-5c-6-2.4-11.8-5.1-17.6-7.8c-9.4-4.5-18.3-3-27.2,1.4
		c-5.8,2.9-11.7,5.3-17.6,8c-9.7,4.3-18.6,3.1-26.9-3.5c-1.3-0.9-1.9-2.6-1.5-4.1c0.7-3.8,1.2-7.6,2.6-11.2c1-2.4,2.3-3.2,4.6-1.9
		c7.3,4.3,14.5,3.2,21.7-0.1c6.6-3,13.5-5.6,20-8.9c10-5,19.3-2.9,28.8,1.6c6.8,3.3,13.9,6.1,20.8,9.2c6,2.7,12,2.8,17.7-0.6
		c2.7-1.6,3.6-0.4,4.1,1.9c0.9,4,1.7,8.1,2.5,12.1c0.2,1.3,0.3,2.7-1.1,3.4C18015.9,6494.1,18011.3,6497.6,18005.5,6497.2z
		 M17901.6,6510.9c1.3,7.1,4.9,13,8.9,18.8c4.1,5.9,5.7,6.5,12.5,4.3c8.7-2.8,16.9-7,25.3-10.8c8.2-3.7,16.1-3.9,24.3,0.1
		c8.9,4.3,18.1,7.9,27.2,11.7c2,0.8,4.6,1.7,6.2,0.2c6.3-6.2,10.7-14.1,12.6-22.7c-1.9,0.9-3.1,1.4-4.3,1.9
		c-5.5,2.4-10.9,3.5-16.8,0.4c-6.8-3.6-14.1-6.2-21.1-9.5c-8.5-4.1-16.9-7-26.3-2.4c-7.7,3.8-15.7,7-23.5,10.5
		c-5,2.3-10.5,2.9-15.8,1.7C17907.4,6514.4,17905.2,6511.2,17901.6,6510.9L17901.6,6510.9z M17949.3,6432.8
		c-13.1,2.3-25,8.8-34,18.6c-1.1,1.2-3.3,2.4-2.5,4.1c0.9,1.8,3.3,1.2,5.1,1.2c0.6-0.1,1.1-0.2,1.7-0.3c8.7-1.7,16.4-6.1,24.2-9.8
		c9.9-4.7,19.5-7.1,29.9-1.6c5.8,3,11.8,5.7,18,8.1c4.6,1.8,8.8,5,14.1,4.6c1.1-0.1,2.4,0.5,3.1-0.9c0.5-1.1-0.4-1.9-1-2.6
		c-7.1-9.2-16.5-15.2-27.5-18.7c-8.8-2.8-17.9-4.2-27.2-3.1C17951.9,6432.5,17950.6,6432.6,17949.3,6432.8L17949.3,6432.8z
		 M17986.7,6549.7c-4.9-3.7-10.2-5.2-15-7.4c-6.2-2.9-12.8-4.1-19.4-1.2c-6,2.6-12,5.2-18.9,8.2
		C17951.6,6558.1,17968.9,6557.2,17986.7,6549.7L17986.7,6549.7z M17901.6,6510.9l-0.3-0.2L17901.6,6510.9L17901.6,6510.9z"/>
	<g id="Group_621" transform="translate(18049.691 6459.833)">
		<g class="st1">
			<path class="st2" d="M4.5,50.3c0,1.5,0.1,3,0.2,4.2c0.1,1.3,0.4,2.5,0.8,3.7c0.1,0.1,0.4,0.8,0.9,1.8c0.3,0.5,0.8,0.8,1.3,0.8
				c0.1,0,0.3,0,0.3,0c0.7-0.2,1.3-0.4,1.9-0.6s1-0.5,1.4-0.8c1.6-1.3,3.1-2.9,4.3-4.8l3.4-5.3l2.2-3.6c0.1-0.2,0.2-0.4,0.3-0.5
				s0.3-0.2,0.5-0.2c0.7,0,1.1,0.3,1.1,0.8c0,0.2-0.1,0.4-0.2,0.6c-1.3,2.7-2.3,4.9-3.2,6.5c-0.8,1.6-1.8,3.1-3,4.6
				c-1,1.3-1.9,2.3-2.6,3.1c-1.5,1.5-3.3,2.3-5.3,2.3c-1.1,0-2.2-0.2-3.3-0.7c-1.1-0.5-1.9-1.1-2.7-1.9c-0.7-0.8-1.2-1.6-1.7-2.6
				c-0.4-0.9-0.8-2-1-3.1c-0.4-1.6-0.6-3.3-0.6-5.1c0-1.1,0.1-2.1,0.2-3l0.5-5.4c0.2-1.9,0.7-4.3,1.6-7c1.8-5.4,4.3-10.2,7.5-14.6
				c1.4-1.9,2.9-3.4,4.3-4.4c1.5-1.1,3-1.6,4.5-1.6c1.4,0,2.8,0.5,4.3,1.5c0.1,0.1,0.3,0.2,0.5,0.4c1.9,1.5,2.8,3.2,2.8,5.2
				c0,0.7-0.1,1.4-0.3,2.1c-0.6,2.5-2.1,4.6-4.4,6.4c-0.3,0.3-0.7,0.5-1.1,0.5c-0.4,0-0.7-0.1-1-0.3c-0.5-0.3-0.7-0.5-0.7-0.7
				c0-0.2,0.1-0.4,0.3-0.7c1.4-1.9,2.4-3.6,3-5.1c0.4-1,0.6-1.9,0.6-2.7c0-0.4,0-0.9-0.1-1.3c-0.1-0.7-0.4-1.4-0.9-1.9
				c-0.2-0.2-0.5-0.3-0.8-0.3h-0.2c-0.5,0.1-1,0.2-1.4,0.4c-0.4,0.2-0.9,0.5-1.4,0.9c-1.6,1.2-3,2.8-4.3,4.9
				c-4.1,6.5-6.8,13.7-8,21.6c-0.2,1.1-0.3,2.3-0.4,3.6C4.7,48.9,4.6,49.8,4.5,50.3z"/>
			<path class="st2" d="M31.8,54.1l-0.4,0.6l-0.9,1.2c-0.5,0.8-1,1.5-1.6,2.3c-0.7,1-1.6,1.6-2.6,1.9c-0.4,0.1-0.8,0.1-1.2,0.1
				c-0.9,0-1.7-0.2-2.5-0.6c-0.8-0.4-1.4-1.1-1.8-1.9c-0.6-1-0.9-2.3-0.9-3.9c0.1-2.1,0.3-4.2,0.8-6.1c0.7-3.3,1.5-6.5,2.5-9.6
				c0,0,0,0,0-0.1c0,0,0,0,0-0.1c0.2-0.6,0.4-1,0.6-1.3c0.2-0.2,0.6-0.4,1-0.4c0.3,0,0.6,0,0.9,0.1c0.5,0.1,1.1,0.4,1.8,0.9
				c0.5,0.3,0.8,0.7,0.8,1.2c0,0.1,0,0.3,0,0.3c-0.3,1.3-0.5,2.2-0.6,2.7c-0.6,2.3-1.1,4.3-1.5,6c-0.4,1.7-0.7,3.4-0.9,5
				c-0.1,0.7-0.1,1.2-0.2,1.7s-0.1,0.9-0.1,1.2l0,1c0,0.3,0,0.7,0.1,1c0,0.1,0,0.2,0.1,0.4c0,0.2,0.1,0.4,0.1,0.5
				c0.7-0.4,1.4-1,2.1-1.9c0.5-0.7,1.2-1.5,1.8-2.4l1.5-2.3c0.7-1.2,1.3-2.1,1.8-2.7c0.5-0.7,0.9-1.7,1.2-2.9l0.3-1
				c0.4-1.2,0.9-2.8,1.5-4.8c0.3-0.9,0.9-2,1.8-3.1c0.3-0.4,0.8-0.6,1.4-0.7c0.3,0,0.5,0,0.6,0.1c0.9,0.2,1.5,0.4,1.9,0.7
				c0.4,0.3,0.5,0.7,0.5,1.3c0,0.5-0.1,0.9-0.2,1.4c-0.1,0.7-0.3,1.4-0.6,2.1L40.7,43c-0.9,3-1.6,5.2-2,6.7
				c-0.3,1.2-0.6,2.1-0.8,2.7c-0.1,0.5-0.3,1.1-0.5,1.8c-0.2,0.6-0.4,1.3-0.6,2c-0.7,2.8-1.1,5.2-0.9,7.2c0,0.2,0,0.5,0,0.8
				c0,0.1,0.1,0.3,0.2,0.7c0.1-0.1,0.1-0.2,0.2-0.2c0.1-0.1,0.1-0.1,0.2-0.2c0.5-0.5,0.9-1.1,1.2-1.7c0.3-0.6,0.7-1.3,1.2-2.2
				c0.7-1.5,1.7-3.6,3-6.6c0.1-0.3,0.5-0.9,1-2l1.8-3.7l1.3-2.7c0.1-0.3,0.3-0.4,0.4-0.5c0.1-0.1,0.2-0.2,0.4-0.2
				c0.1,0,0.4,0.1,0.8,0.3c-0.1,0.2-0.2,0.6-0.4,1.1c-0.2,0.5-0.4,1-0.6,1.4l-4.1,9c-0.5,1.1-0.9,2-1.2,2.6L40,61.8
				c-0.7,1.6-1.5,2.8-2.2,3.6c-0.5,0.7-1.2,1.2-2.1,1.3c-0.1,0-0.3,0-0.6,0c-0.9,0-1.7-0.4-2.1-1.2c-0.6-0.8-1-1.8-1.3-3.1
				c-0.1-0.8-0.2-1.7-0.2-2.8c0-1.2,0.1-2.8,0.4-4.6c0-0.1,0-0.3,0-0.5c0-0.2,0-0.3,0-0.5C31.8,54.1,31.8,54.1,31.8,54.1z"/>
			<path class="st2" d="M51.2,46.3l-0.3,1.8c-0.2,1.3-0.4,2.2-0.4,2.8c-0.1,0.5-0.2,1.4-0.3,2.7c0,0.2,0,0.6-0.1,1.1
				C50,55.6,50,56.2,50,56.6c0,1.1,0.1,2.2,0.3,3.3v0.1c0.2,0.9,0.5,1.3,0.9,1.3c0.3,0,0.6-0.1,1-0.4c1.3-0.9,2.4-2,3.5-3.3
				c1.1-1.5,2.4-3.7,3.9-6.6l1.5-3.3c0.6-1.3,0.9-2.1,1.1-2.4c0.2-0.5,0.5-0.7,1-0.7h0.2c0.2,0,0.3,0.1,0.4,0.1
				c0.1,0.1,0.1,0.2,0.1,0.3v0.1c0,0,0,0.1,0,0.2c0,0.1-0.1,0.1-0.1,0.2c-1,2.5-2,4.7-2.9,6.6c-0.9,1.9-1.9,3.7-3,5.4
				c-1.1,1.7-2.4,3.1-3.9,4.2c-1.1,0.8-2.3,1.2-3.6,1.2c-0.4,0-0.9,0-1.3-0.1c-1.7-0.4-2.8-1.4-3.5-3c-0.4-1-0.7-2.3-0.9-4.1
				c-0.1-0.8-0.1-1.4-0.1-1.8c0-1.1,0.1-2.2,0.2-3.4c0.2-1.1,0.4-2.4,0.7-4l0.2-1.2c1.1-5.7,3.1-11.5,5.9-17.4c2-4.3,4.3-8,7-11.1
				c1.1-1.2,2.3-2.1,3.6-2.8c0.8-0.4,1.5-0.6,2.3-0.6c1.1,0,2.2,0.4,3.3,1.1c0.5,0.3,0.9,0.7,1.1,1.2c0.2,0.5,0.4,1.1,0.5,1.8
				c0,0.3,0,0.6,0,1.2c0,1.4-0.2,2.9-0.6,4.5C67.1,29.4,64.6,34.6,61,39c-1,1.2-2.5,2.7-4.5,4.6c-1.3,1.3-3,2.1-4.9,2.6
				C51.6,46.3,51.4,46.3,51.2,46.3z M51.7,44.4l0.2,0.2c0.7-0.3,1.2-0.6,1.5-0.8c1.9-1.3,3.7-2.9,5.3-4.9c3.4-4,5.9-8.7,7.5-14.1
				c0.5-1.6,0.8-3.3,0.8-4.9c0-0.8-0.1-1.5-0.2-2.1c-0.1-0.6-0.4-1.2-0.8-1.8c-0.1,0.1-0.3,0.3-0.5,0.4c-0.2,0.2-0.4,0.3-0.4,0.4
				c-1.2,1.4-2,2.4-2.5,3.1c-0.7,1.1-1.4,2.2-2,3.3c-0.6,1.1-1.4,2.6-2.3,4.5l-0.5,1.1c-2,4.1-3.7,8.2-5,12.5l-0.4,1.6
				C52,43.4,51.8,44,51.7,44.4z"/>
			<path class="st2" d="M64.6,34.8l-1.9,0.3c-0.4,0.1-0.7,0.2-0.9,0.2c-0.1,0-0.2,0-0.4,0c-0.5,0-0.8-0.1-1.1-0.4
				c-0.5-0.5-0.9-1-1.2-1.5c-0.1-0.2-0.2-0.4-0.2-0.6c0-0.4,0.3-0.6,0.9-0.7c1.2-0.3,2.2-0.5,3-0.7c1.2-0.3,2.1-0.5,2.7-0.5
				c0.5-0.1,0.9-0.4,1.1-0.9c0.4-0.9,0.8-1.9,1.2-3l0.5-1.2c0.5-1.1,1.2-1.6,2.2-1.6c0.4,0,0.7,0,0.9,0.1c0.5,0.1,1.1,0.4,1.6,0.6
				c0.7,0.4,1,0.9,1,1.6c0,0.3-0.1,0.6-0.2,0.9c-0.4,0.8-0.6,1.4-0.8,2l-0.3,0.6H74c1.4,0.1,2.5,0.4,3.5,1c0.1,0,0.2,0.1,0.3,0.1
				c0.1,0.1,0.2,0.2,0.4,0.3c0.1,0.1,0.2,0.3,0.2,0.5v0.1c0,0.2-0.1,0.4-0.3,0.5c-0.2,0.1-0.4,0.2-0.7,0.3c-0.1,0.1-0.4,0.1-0.9,0.2
				c-1.9,0.2-3.3,0.3-4.2,0.3c-0.7,0-1.2,0.4-1.4,1.1c-1.8,4.5-3.3,9.4-4.3,14.7c-0.5,2.7-0.7,5.2-0.7,7.5c0,0.7,0,1.2,0,1.6
				c0,0.6,0.1,1.1,0.2,1.5c0.1,0.4,0.3,0.8,0.6,1.2c0.7-0.4,1.3-1,1.8-1.9c0.9-1.3,1.5-2.4,2.1-3.4c1.7-3.1,2.9-5.5,3.7-7.1l0.6-1.5
				c0.2-0.5,0.5-1.1,0.9-2.1c0.1-0.4,0.4-0.6,0.7-0.6c0.1,0,0.3,0.1,0.7,0.2L77,45.2c-0.5,1.5-0.9,2.5-1,2.9
				c-1.3,4.1-3,7.7-4.8,10.9c-0.3,0.4-0.8,1.1-1.7,2.1c-1.1,1.1-2.5,1.6-4.2,1.6c-0.8,0-1.6-0.2-2.2-0.6c-0.7-0.4-1.2-0.9-1.6-1.6
				c-0.8-1.3-1.2-2.6-1.2-4c-0.1-2.2,0.2-5,0.8-8.3c0.9-4.4,1.9-8.3,3-11.7L64.6,34.8z"/>
			<path class="st2" d="M86.2,54.1l-0.4,0.6l-0.9,1.2c-0.5,0.8-1,1.5-1.6,2.3c-0.7,1-1.6,1.6-2.6,1.9c-0.4,0.1-0.8,0.1-1.2,0.1
				c-0.9,0-1.7-0.2-2.5-0.6s-1.4-1.1-1.8-1.9c-0.6-1-0.9-2.3-0.9-3.9c0.1-2.1,0.3-4.2,0.8-6.1c0.7-3.3,1.5-6.5,2.5-9.6
				c0,0,0,0,0-0.1c0,0,0,0,0-0.1c0.2-0.6,0.4-1,0.6-1.3c0.2-0.2,0.6-0.4,1-0.4c0.3,0,0.6,0,0.9,0.1c0.5,0.1,1.1,0.4,1.8,0.9
				c0.5,0.3,0.8,0.7,0.8,1.2c0,0.1,0,0.3,0,0.3c-0.3,1.3-0.5,2.2-0.6,2.7c-0.6,2.3-1.1,4.3-1.5,6c-0.4,1.7-0.7,3.4-0.9,5
				c-0.1,0.7-0.1,1.2-0.2,1.7c0,0.5-0.1,0.9-0.1,1.2l0,1c0,0.3,0,0.7,0.1,1c0,0.1,0,0.2,0.1,0.4c0,0.2,0.1,0.4,0.1,0.5
				c0.7-0.4,1.4-1,2.1-1.9c0.5-0.7,1.2-1.5,1.8-2.4l1.5-2.3c0.7-1.2,1.3-2.1,1.8-2.7c0.5-0.7,0.9-1.7,1.2-2.9l0.3-1
				c0.4-1.2,0.9-2.8,1.5-4.8c0.3-0.9,0.9-2,1.8-3.1c0.3-0.4,0.8-0.6,1.4-0.7c0.3,0,0.5,0,0.6,0.1c0.9,0.2,1.5,0.4,1.9,0.7
				s0.5,0.7,0.5,1.3c0,0.5-0.1,0.9-0.2,1.4c-0.1,0.7-0.3,1.4-0.6,2.1L95.1,43c-0.9,3-1.6,5.2-2,6.7c-0.3,1.2-0.6,2.1-0.8,2.7
				c-0.1,0.5-0.3,1.1-0.5,1.8c-0.2,0.6-0.4,1.3-0.6,2c-0.7,2.8-1.1,5.2-0.9,7.2c0,0.2,0,0.5,0,0.8c0,0.1,0.1,0.3,0.2,0.7
				c0.1-0.1,0.1-0.2,0.2-0.2s0.1-0.1,0.2-0.2c0.5-0.5,0.9-1.1,1.2-1.7c0.3-0.6,0.7-1.3,1.2-2.2c0.7-1.5,1.7-3.6,3-6.6
				c0.1-0.3,0.5-0.9,1-2l1.8-3.7l1.3-2.7c0.1-0.3,0.3-0.4,0.4-0.5c0.1-0.1,0.2-0.2,0.4-0.2c0.1,0,0.4,0.1,0.8,0.3
				c-0.1,0.2-0.2,0.6-0.4,1.1c-0.2,0.5-0.4,1-0.6,1.4l-4.1,9c-0.5,1.1-0.9,2-1.2,2.6l-1.2,2.6c-0.7,1.6-1.5,2.8-2.2,3.6
				c-0.5,0.7-1.2,1.2-2.1,1.3c-0.1,0-0.3,0-0.6,0c-0.9,0-1.7-0.4-2.1-1.2c-0.6-0.8-1-1.8-1.3-3.1c-0.1-0.8-0.2-1.7-0.2-2.8
				c0-1.2,0.1-2.8,0.4-4.6c0-0.1,0-0.3,0-0.5c0-0.2,0-0.3,0-0.5C86.3,54.1,86.2,54.1,86.2,54.1z"/>
			<path class="st2" d="M107.5,69.8c0.8-0.6,1.4-1.3,2-2.2c1.5-2.5,2.4-4.2,3-5.4c0.7-1.5,1.7-3.5,2.7-6l1.4-3
				c0.2-0.3,0.3-0.6,0.4-1l0.4-0.9l3.1-6.3c0.2-0.4,0.4-0.6,0.8-0.6c0.3,0,0.5,0.1,0.9,0.3c-0.5,1.2-0.7,1.9-0.8,2.1l-5.1,11.4
				l-1.6,3.7l-2,4.5c-0.4,0.9-1,1.9-1.8,3.1c-1.1,1.5-2.7,2.3-4.7,2.2c-1.5-0.1-2.6-0.9-3.1-2.3c-0.2-0.7-0.3-1.5-0.3-2.4
				c0-0.4,0-0.7,0-0.9c0.1-1.9,0.3-3.6,0.6-5c0.2-1.3,0.6-3,1-5c0.3-1.6,0.6-2.8,0.7-3.6l0.6-4.4c0.2-1.8-0.5-3.1-2.1-4.1
				c-0.5-0.3-1-0.6-1.5-1c-0.5-0.4-0.8-0.7-0.9-0.8c-0.6-0.5-1.1-1.2-1.6-2.1c-0.3-0.8-0.5-1.5-0.5-2.1c0-0.7,0.1-1.4,0.4-2
				c0.5-1.1,0.9-1.9,1.2-2.4c0.6-0.8,1.3-1.2,2-1.2c0.5,0,1,0.1,1.4,0.3c0.5,0.2,0.7,0.5,0.7,0.9c0,0.1,0,0.3-0.1,0.5
				c-0.2,0.9-0.3,1.7-0.5,2.3c-0.1,0.6-0.1,1.2-0.1,1.9c0,1.4,0.6,2.6,1.8,3.5c0.2,0.1,0.5,0.3,0.8,0.5c0.3,0.2,0.5,0.4,0.7,0.6
				c0.6,0.5,1.2,1,1.8,1.6c1,0.9,1.5,2.3,1.6,4.2c0,1.8-0.3,4.2-0.9,7c-0.9,3.8-1.7,7.3-2.2,10.6c-0.2,0.9-0.3,1.6-0.3,2.2
				C107.4,69,107.4,69.4,107.5,69.8z"/>
			<path class="st2" d="M125.2,45.6c-0.8,2.2-1.2,4.2-1.2,6c0,0.5,0,0.9,0,1.2c0,0.5,0.2,0.9,0.5,1.4c0.3,0.5,0.7,0.7,1.2,0.7
				c1.3,0,3-1,5.4-3.1c2.3-2.1,4.3-4.3,6-6.6c0.2-0.3,0.5-0.5,0.7-0.5c0.3,0,0.4,0.2,0.4,0.5c0,0.2,0,0.3-0.1,0.4
				c-1.7,2.4-3.1,4.3-4.5,5.8c-1.3,1.5-2.9,2.7-4.6,3.7c-1.1,0.7-2.2,1.1-3.5,1.1c-1.1,0-2.2-0.3-3.1-0.8c-1-0.6-1.7-1.3-2.2-2.4
				c-0.7-1.3-1.1-2.6-1.1-4.1c0-0.7,0.1-1.4,0.3-2.1c0.7-3.2,2.3-5.9,4.7-8.1c1.2-1.1,2.2-1.9,3.1-2.5c1.1-0.8,2.4-1.2,3.7-1.2
				c0.5,0,1,0,1.2,0.1c1.3,0.2,2.3,0.8,3,1.7c0.4,0.4,0.6,0.9,0.6,1.4c0,0.2,0,0.5-0.1,0.7c-0.2,0.8-0.5,1.5-1,1.9
				c-2.2,2.5-4.9,4-8.1,4.6C125.9,45.4,125.5,45.5,125.2,45.6z M125.7,44.2c1.2-0.3,2.2-0.6,3.1-1c0.9-0.4,1.6-0.8,2.3-1.4
				c0.5-0.4,1.1-1.1,1.9-2c0.3-0.5,0.5-1,0.5-1.5c0-0.2,0-0.4,0-0.6c-0.1-0.6-0.4-0.9-0.8-0.9c-0.2,0-0.3,0-0.5,0.1
				c-0.7,0.3-1.4,0.7-1.9,1.2c-1.5,1.3-2.8,2.9-3.8,4.8L125.7,44.2z"/>
		</g>
		<g class="st1">
			<path class="st3" d="M1.7,85.3c0-0.5,0.2-2.6-0.2-3.2c-0.2-0.4-1.3-0.1-1.3-0.8s1.7-0.9,2.3-0.9c0.4,0,0.8,0.2,0.8,0.7
				c0,0.8-0.2,1.7-0.2,2.5c0,0.3-0.1,0.8,0.3,0.8c0.6,0,1.2-0.2,1.8-0.2c2.2,0,3.6,1.8,3.6,3.9c0,0.7-0.2,1.4-0.5,2
				c-1.1,1.2-1.9,1.8-3.6,1.8c-0.5,0-1-0.1-1.6-0.1c-0.3,0-0.6,0.1-0.9,0.1c-0.9,0-0.6-1.3-0.6-1.9C1.6,88.5,1.7,86.9,1.7,85.3z
				 M4.8,90.7c1.4,0,2.7-1.5,2.5-2.9c-0.2-1.5-1.2-2.2-2.6-2.2c-0.1,0-0.7,0-0.8,0c-0.3,0-0.5,0.2-0.7,0.4c-0.1,0.7-0.1,1.4-0.1,2.2
				C3.1,89.8,3,90.7,4.8,90.7z"/>
			<path class="st3" d="M10,91.2c0-0.8,1.3-0.4,1.5-1.2c0-0.2,0-1.3,0-1.6c0-0.3,0.3-3-0.7-3c-0.3,0-0.9,0.2-1.1,0.2c0,0,0,0-0.1,0
				c-0.2,0-0.3-0.5-0.3-0.7c0-0.7,1.3-0.8,2.1-0.8c0.2,0,0.3,0,0.5,0c0.8,0,0.6,0.9,1.1,1.2c1-0.4,1.9-1.4,3.1-1.4
				c0.7,0,1.5,0.4,1.5,1.2c0,0.3-0.1,0.6-0.5,0.7c-0.1,0-0.5,0-0.6,0c-0.2,0-0.6,0-0.6,0c-0.1,0-0.6-0.2-0.7-0.2c0,0-0.1,0-0.1,0
				c-0.7,0-2.1,0.9-2.1,1.5v3.2c0,0,0.1,0.2,0.2,0.2c0,0,0.5,0.1,0.6,0.1c0.3,0,1.4,0.1,1.7,0.1c0.3,0.1,0.4,0.3,0.5,0.6
				c-0.2,0.5-0.7,0.5-1.2,0.5h-0.2c-0.1,0-0.6-0.1-0.7-0.1c-0.1,0-1.3,0.1-1.4,0.1c-0.7,0-1.4,0-2.1-0.1C10.1,91.5,10,91.4,10,91.2z
				"/>
			<path class="st3" d="M20.7,84.1h2.1c1.4,0,2.4,2,2.4,3.1c0,0.1,0,0.5,0,0.6c-0.3,0.5-1.2,0.6-2.2,0.6c-0.7,0-1.4,0-2,0
				c-0.9,0-1.6,0.1-1.6,0.5c0,1.3,1.6,1.7,2.6,1.7c1.1,0,2-0.5,3-0.5c0.4,0,0.5,0.1,0.5,0.5c0,1-3.1,1.4-3.9,1.4
				c-2.2,0-3.9-1.3-3.9-3.6C17.7,86.8,18.8,84.1,20.7,84.1z M19.6,87l0.6,0.2c0,0,0.6,0,0.8,0c0.2,0,0.6,0,1.1,0
				c0.8,0,1.6-0.1,1.6-0.6c0-0.8-1.5-1.4-2.1-1.4c-0.9,0-2,0.7-2,1.6C19.6,86.9,19.6,87,19.6,87z"/>
			<path class="st3" d="M31.6,86.8v-1.1c0-0.1-0.5-0.5-0.7-0.6c-0.1,0-0.5,0-0.6,0c-1.5,0-1.5,1.4-2.4,1.4c-0.5,0-0.8-0.4-0.8-0.9
				c0-1.5,2.5-1.5,3.5-1.5c0.2,0,0.9,0,1.1,0c0.5,0.1,1.4,0.6,1.4,1.2v4.1c0,0.2,0.1,0.7,0.2,0.9c0.1,0,0.2,0,0.3,0
				c0.4,0,0.8,0.2,0.8,0.6c0,0.8-1.4,0.8-1.9,0.8c-0.5,0-0.8-0.3-1.2-0.3c-0.9,0-1.6,0.3-2.4,0.3c-0.2,0-0.9,0-1.1,0
				c-1-0.2-1.7-0.9-1.7-1.9C26.1,86.9,31.6,87.5,31.6,86.8z M29.4,90.7c1,0,2.1-0.6,2.1-1.7c0-0.2-0.1-0.5-0.2-0.6h-2.1
				c-0.6,0-1.6,0.6-1.6,1.3C27.6,90.5,28.9,90.7,29.4,90.7z"/>
			<path class="st3" d="M36.4,90.6c0.4-0.9,0.2-2.1,0.2-3.1c0-0.3-0.1-0.6-0.1-0.9c0-0.7,0.1-1.3,0.1-2c0-0.5,0.1-1.7-0.3-2.2
				c-0.4-0.5-1.2-0.2-1.2-1c0-0.6,1.9-0.9,2.4-0.9c0.6,0,0.6,0.7,0.6,1.2c0,1.2-0.1,2.4-0.1,3.5c0,0.4,0,1.4,0,1.5
				c0,0.3,0.1,0.9,0.1,0.9h0.2c0.1-0.1,0.5-0.5,0.8-0.6l1.2-1.2c0,0,0-0.1,0-0.2v-0.2c0-0.1-0.2-0.4-0.2-0.5s0.2-0.4,0.3-0.4
				c0.6-0.1,0.9-0.1,1.5-0.1c0.5,0,0.8,0,1.4,0.1c0,0,0.4,0.3,0.4,0.5l-0.1,0.2c-0.3,0.1-1.5,0.8-1.8,0.9c-0.5,0.3-1.3,0.8-1.3,1.4
				s2.1,3.1,2.7,3.1c0.3,0,0.5-0.1,0.8-0.1c0.2,0,0.6,0.2,0.6,0.5c0,0.8-1.3,0.9-2,0.9c-0.2,0-0.3,0-0.5-0.2
				c-0.2-0.2-1.2-1.2-1.4-1.4c-0.4-0.5-0.9-1.6-1.5-2c0,0,0,0-0.1,0l-1,1C38,89.4,38,89.7,38,89.8c0,1.3,1.4,1,1.4,1.6
				c0,0.5-0.7,0.6-1.4,0.6c-0.5,0-1.1-0.1-1.3-0.1c-0.1,0-0.4,0-0.5,0c-0.2-0.1-0.3-0.3-0.3-0.5C35.9,91.1,36.3,90.9,36.4,90.6z"/>
			<path class="st3" d="M47.7,90.2c0.1-0.9,0.1-1.3,0.1-2.2c0-0.3,0-2.3-0.2-2.4l-0.2-0.1h-1.7c0,0-0.3-0.3-0.4-0.4l-0.1-0.2
				c0-0.7,2.8-0.8,3.4-0.8c0.3,0,0.8,0.3,0.8,0.7v5.5c0,0.1,0.5,0.3,0.6,0.3c0.3,0,1.6,0.1,1.9,0.1c0.4,0,0.8,0.1,0.8,0.6
				c0,0.3-0.1,0.6-0.5,0.6h-6.4c-0.2,0-0.5-0.4-0.5-0.6C45.3,90.2,47.2,90.9,47.7,90.2z M48.8,80.8c0.3,0,1.1,0.3,1.1,0.6v0.9
				c0,0.3-0.9,0.9-1.2,0.9c-0.6,0-1.2-0.4-1.2-1C47.5,81.4,48.1,80.8,48.8,80.8z"/>
			<path class="st3" d="M60,87.9c0-0.8,0-2.2-1-2.4c-0.1,0-0.5,0-0.5,0c-2.3,0-2.5,1.2-2.5,3.1c0,3,1.7,1.8,1.7,2.7
				c0,0.4-0.7,0.5-1.2,0.5c-0.3,0-0.5,0-0.6,0c-0.2,0-0.5,0-0.8,0c-0.4,0-0.9-0.1-1.1-0.3l-0.1-0.2c0.1-0.6,0.7-0.5,0.7-1.2v-4
				c0-0.9-1.4-0.2-1.4-1.1c0-0.6,1.5-0.7,1.9-0.7c0.5,0,0.8,0.5,1.2,0.5c0.8,0,1.7-0.7,2.6-0.7c3.1,0,2.6,4.1,2.6,6
				c0.1,0.8,1.2,0.4,1.2,1.2c0,0.6-0.6,0.7-1,0.7c-0.2,0-1.6-0.1-2.2-0.3c-0.2-0.1-0.3-0.2-0.3-0.4C60.2,90.5,60,89.1,60,87.9z"/>
			<path class="st3" d="M64.3,90.6c0.1-0.5,0.7-0.9,0.7-1.4c-0.7-0.7-1-1.3-1-2.3c0-1.7,1.3-2.6,2.9-2.6c1.4,0,2.7,0.6,4.1,0.7
				c0.3,0.1,0.4,0.3,0.4,0.6v0.1c0,0.1-0.3,0.3-0.3,0.3L70,86.2c0.3,4.7-3.5,2.1-4.3,4.3l0.2,0.1c0.2,0,1.2,0.1,1.4,0.1
				c0.1,0,1,0.1,1.1,0.1c0.1,0,0.5-0.1,0.5-0.1c0.3,0,2.7,0.4,2.7,1.1v1.6c0,1.6-3,2.2-4.1,2.2c-1.4,0-4.2-0.3-4.2-2.4
				C63.3,92.4,64.1,91.6,64.3,90.6z M67.1,94.5c1.2,0,2.5-0.2,3.2-1.2c0-0.1,0-0.3,0-0.4c0-0.9-0.9-1-1.8-1c-0.4,0-0.8,0-1.1,0
				c-0.8,0-1.2,0-2,0.1c-0.5,0.5-0.7,0.5-0.7,1.1C64.7,94.4,66.1,94.5,67.1,94.5z M67.1,88.5c0.9,0,1.6-0.5,1.6-1.5S68,85.3,67,85.3
				c-1,0-1.7,0.7-1.7,1.7C65.3,88.1,66.1,88.5,67.1,88.5z"/>
			<path class="st3" d="M80.2,85.3c0-0.5,0.2-2.6-0.2-3.2c-0.2-0.4-1.3-0.1-1.3-0.8s1.7-0.9,2.3-0.9c0.4,0,0.8,0.2,0.8,0.7
				c0,0.8-0.2,1.7-0.2,2.5c0,0.3-0.1,0.8,0.3,0.8c0.6,0,1.2-0.2,1.8-0.2c2.2,0,3.6,1.8,3.6,3.9c0,0.7-0.2,1.4-0.5,2
				c-1.1,1.2-1.9,1.8-3.6,1.8c-0.5,0-1-0.1-1.6-0.1c-0.3,0-0.6,0.1-0.9,0.1c-0.9,0-0.6-1.3-0.6-1.9C80.1,88.5,80.2,86.9,80.2,85.3z
				 M83.3,90.7c1.4,0,2.7-1.5,2.5-2.9c-0.2-1.5-1.2-2.2-2.6-2.2c-0.1,0-0.7,0-0.8,0c-0.3,0-0.5,0.2-0.7,0.4
				c-0.1,0.7-0.1,1.4-0.1,2.2C81.6,89.8,81.5,90.7,83.3,90.7z"/>
			<path class="st3" d="M91.7,84c2.3,0,4.1,1.5,4.1,3.9c0,2.3-1.8,4.1-4.1,4.1c-2.3,0-3.9-1.8-3.9-4C87.8,85.8,89.5,84,91.7,84z
				 M91.9,90.8c1.4,0,2.4-1.4,2.4-2.8c0-0.9-0.7-2.7-1.8-2.7h-1.7c-1.1,0-1.5,2-1.5,2.7C89.3,89.4,90.4,90.8,91.9,90.8z"/>
			<path class="st3" d="M97,91.2c0-0.8,1.3-0.4,1.5-1.2c0-0.2,0-1.3,0-1.6c0-0.3,0.3-3-0.7-3c-0.3,0-0.9,0.2-1.1,0.2c0,0,0,0-0.1,0
				c-0.2,0-0.3-0.5-0.3-0.7c0-0.7,1.3-0.8,2.1-0.8c0.2,0,0.3,0,0.5,0c0.8,0,0.6,0.9,1.1,1.2c1-0.4,1.9-1.4,3.1-1.4
				c0.7,0,1.5,0.4,1.5,1.2c0,0.3-0.1,0.6-0.5,0.7c-0.1,0-0.5,0-0.6,0c-0.2,0-0.6,0-0.6,0c-0.1,0-0.6-0.2-0.7-0.2c0,0-0.1,0-0.1,0
				c-0.7,0-2.1,0.9-2.1,1.5v3.2c0,0,0.1,0.2,0.2,0.2c0,0,0.5,0.1,0.6,0.1c0.3,0,1.4,0.1,1.7,0.1c0.3,0.1,0.4,0.3,0.5,0.6
				c-0.2,0.5-0.7,0.5-1.2,0.5h-0.2c-0.1,0-0.6-0.1-0.7-0.1c-0.1,0-1.3,0.1-1.4,0.1c-0.7,0-1.4,0-2.1-0.1C97.1,91.5,97,91.4,97,91.2z
				"/>
			<path class="st3" d="M107.5,84.4h2.8c0,0,0.2-0.3,0.2-0.4c0-0.3-0.1-0.5-0.1-0.7c0-0.3,0.1-0.5,0.1-0.8c0-0.7-1.4-0.4-1.4-1.1
				c0-0.8,1.6-0.9,2.1-0.9c0.6,0,0.7,0.1,0.8,0.6c0,0.1,0,0.7,0,0.8c0,1.5-0.1,3-0.1,4.5v0.2c0,0.5,0.1,2.9,0.1,3.4
				c0.3,0.6,1.1,0.1,1.1,0.9c0,1-3,1-4.3,1c-0.2,0-0.4,0-0.5,0c-2.2,0-3.5-1.6-3.5-3.7C104.8,86.8,105.7,84.4,107.5,84.4z M109,90.7
				c0.5,0,1-0.2,1.3-0.6c0.1-0.8,0.2-1.7,0.2-2.5c0-1.3-0.2-2.2-1.7-2.2c-1.4,0-2.5,1.1-2.5,2.5C106.3,89.5,107.3,90.7,109,90.7z"/>
			<path class="st3" d="M116.7,84.1h2.1c1.4,0,2.4,2,2.4,3.1c0,0.1,0,0.5,0,0.6c-0.3,0.5-1.2,0.6-2.2,0.6c-0.7,0-1.4,0-2,0
				c-0.9,0-1.6,0.1-1.6,0.5c0,1.3,1.6,1.7,2.6,1.7c1.1,0,2-0.5,3-0.5c0.4,0,0.5,0.1,0.5,0.5c0,1-3.1,1.4-3.9,1.4
				c-2.2,0-3.9-1.3-3.9-3.6C113.7,86.8,114.8,84.1,116.7,84.1z M115.6,87l0.6,0.2c0,0,0.6,0,0.8,0c0.2,0,0.6,0,1.1,0
				c0.8,0,1.6-0.1,1.6-0.6c0-0.8-1.5-1.4-2.1-1.4c-0.9,0-2,0.7-2,1.6C115.6,86.9,115.6,87,115.6,87z"/>
			<path class="st3" d="M122.7,91.2c0-0.8,1.3-0.4,1.5-1.2c0-0.2,0-1.3,0-1.6c0-0.3,0.3-3-0.7-3c-0.3,0-0.9,0.2-1.1,0.2
				c0,0,0,0-0.1,0c-0.2,0-0.3-0.5-0.3-0.7c0-0.7,1.3-0.8,2.1-0.8c0.2,0,0.3,0,0.5,0c0.8,0,0.6,0.9,1.1,1.2c1-0.4,1.9-1.4,3.1-1.4
				c0.7,0,1.5,0.4,1.5,1.2c0,0.3-0.1,0.6-0.5,0.7c-0.1,0-0.5,0-0.6,0c-0.2,0-0.6,0-0.6,0c-0.1,0-0.6-0.2-0.7-0.2c0,0-0.1,0-0.1,0
				c-0.7,0-2.1,0.9-2.1,1.5v3.2c0,0,0.1,0.2,0.2,0.2c0,0,0.5,0.1,0.6,0.1c0.3,0,1.4,0.1,1.7,0.1c0.3,0.1,0.4,0.3,0.5,0.6
				c-0.2,0.5-0.7,0.5-1.2,0.5h-0.2c-0.1,0-0.6-0.1-0.7-0.1c-0.1,0-1.3,0.1-1.4,0.1c-0.7,0-1.4,0-2.1-0.1
				C122.8,91.5,122.7,91.4,122.7,91.2z"/>
			<path class="st3" d="M132.1,91.8c-0.8,0-1.2-0.8-1.2-1.5c0-0.4,0.1-1.3,0.7-1.3c1,0,0.8,1.7,1.9,1.7h1.7c0.6,0,0.9-0.7,0.9-1.2
				c0-1.5-4.8-0.2-4.8-3.1c0-1.7,1.8-2.5,3.2-2.5c0.7,0,1.7,0.3,2.4,0.4c0.5,0.3,0.5,0.9,0.5,1.4c0,0.3-0.1,1.1-0.5,1.1
				c0,0,0,0-0.1,0c-1.5-0.2-0.2-1.5-2.4-1.5c-0.2,0-0.8,0-0.9,0c-0.4,0.2-0.7,0.4-0.7,0.9c0,1.8,5,0.2,5,3.4c0,1.7-2.1,2.3-3.4,2.3
				c-0.7,0-1.3-0.2-1.9-0.2L132.1,91.8z"/>
		</g>
	</g>
</g>
</svg>
