<svg xmlns="http://www.w3.org/2000/svg" width="337.294" height="137" viewBox="0 0 337.294 137">
  <g id="Group_582" data-name="Group 582" transform="translate(-13906.706 -7208)">
    <path id="Path_19554" data-name="Path 19554" d="M839.847,371.456c-6.137.3-10.913-3.073-16.069-5.177-6.16-2.515-12.248-5.232-18.251-8.1-9.688-4.635-18.9-3.116-28.115,1.452-5.969,2.957-12.132,5.522-18.223,8.234-10.012,4.46-19.256,3.223-27.833-3.625a4.08,4.08,0,0,1-1.578-4.294c.747-3.892,1.192-7.842,2.7-11.587,1-2.488,2.36-3.328,4.716-1.929,7.529,4.478,14.987,3.327,22.5-.075,6.879-3.114,13.952-5.824,20.7-9.2,10.347-5.175,20.019-3.039,29.777,1.605,7.081,3.37,14.351,6.346,21.524,9.519,6.222,2.753,12.416,2.855,18.328-.638,2.824-1.67,3.743-.433,4.276,2.006.912,4.174,1.789,8.357,2.583,12.554.247,1.3.336,2.84-1.106,3.563C850.65,368.328,845.854,371.872,839.847,371.456Zm-107.5,14.218c1.321,7.309,5.068,13.5,9.168,19.492,4.21,6.147,5.913,6.711,12.964,4.424,9.047-2.935,17.513-7.263,26.159-11.138,8.473-3.8,16.615-4.043,25.189.134,9.16,4.462,18.705,8.139,28.113,12.088,2.065.867,4.809,1.8,6.378.209a47.055,47.055,0,0,0,13.057-23.514c-1.993.883-3.191,1.43-4.4,1.947-5.731,2.444-11.258,3.67-17.389.438-7.039-3.711-14.6-6.41-21.8-9.848-8.8-4.2-17.475-7.206-27.166-2.492-7.987,3.886-16.217,7.277-24.357,10.843a26.2,26.2,0,0,1-16.378,1.777c-3.479-.751-5.813-4.086-9.537-4.363Zm49.408-80.793a62.825,62.825,0,0,0-35.22,19.234c-1.174,1.258-3.378,2.515-2.556,4.265.9,1.906,3.4,1.291,5.3,1.242a10.986,10.986,0,0,0,1.727-.361c8.988-1.773,16.921-6.269,25.021-10.132,10.239-4.885,20.13-7.381,30.895-1.691a188.553,188.553,0,0,0,18.612,8.382c4.744,1.882,9.1,5.145,14.6,4.735,1.108-.082,2.524.479,3.175-.9.529-1.123-.409-1.943-1.022-2.742-7.345-9.569-17.088-15.759-28.424-19.39-9.12-2.921-18.514-4.371-28.168-3.176C784.383,304.524,783.06,304.638,781.76,304.881Zm38.685,120.958c-5.107-3.813-10.539-5.368-15.554-7.688-6.389-2.957-13.2-4.2-20.092-1.248-6.246,2.68-12.467,5.416-19.56,8.5C784.15,434.457,801.994,433.554,820.445,425.839Zm-88.09-40.168-.318-.179.315.182Z" transform="translate(13177.029 6908.08)" fill="#b2a47e"/>
    <g id="Group_581" data-name="Group 581" transform="translate(13320 6428)">
      <text id="Culture" transform="translate(832 865)" fill="#535c44" font-size="79" font-family="raustila-Regular, raustila"><tspan x="-89.524" y="0">Culture</tspan></text>
      <text id="breaking_borders" data-name="breaking borders" transform="translate(831 911)" fill="#d8a725" font-size="20" font-family="JMHTypewriterdry-Regular, JMH Typewriter dry" opacity="0.489"><tspan x="-92.139" y="0">breaking borders</tspan></text>
    </g>
  </g>
</svg>
