<svg xmlns="http://www.w3.org/2000/svg" width="838.469" height="374.467" viewBox="0 0 838.469 374.467">
  <g id="logo-vertical-gradient" transform="translate(-0.002 0.002)">
    <path id="Path_2174" data-name="Path 2174" d="M590.153,273.342h54.054V393.275a37.712,37.712,0,1,0,75.4,0V273.342h54.054V389.194c0,54.666-39.271,91.737-91.737,91.737-53.095,0-91.737-36.455-91.737-91.737Zm426.676,0h54.1v79.426h75.81V273.325h54.126v207.61h-54.121V401.509h-75.81v79.426h-54.109Zm-524.686.13V377.13l-75.718-72.206V273.346H362.4V480.814h54.054V375.546l75.718,73.329v32.06h54.054V273.476ZM872.584,414.846h0m38.3,48.607L891.16,418.165h-5.028L866.4,463.457Zm6.579-20.951,9.131,20.951h.059l7.618,17.473h58.718L899.548,271.5H878.517l-93.485,209.42h58.718l7.635-17.473,37.595-86.319,28.473,65.368-11.506-26.4" transform="translate(-362.399 -271.5)" fill="#2b3652"/>
    <g id="Group_3554" data-name="Group 3554" transform="translate(0.001 278.658)">
      <path id="Path_2175" data-name="Path 2175" d="M362.4,310.648h18.906v55.588a20.323,20.323,0,1,0,40.616,0V310.648h18.9v54.184a39.21,39.21,0,1,1-78.42,0Z" transform="translate(-362.4 -308.972)" fill="#2b3652"/>
      <path id="Path_2176" data-name="Path 2176" d="M455.886,312.09v94.092H449.6l-53.509-57.13v55.454h-18.9V310.414h6.172L437,367.255V312.12Z" transform="translate(-271.284 -310.414)" fill="#2b3652"/>
      <path id="Path_2177" data-name="Path 2177" d="M392.118,310.648h18.907v92.4H392.118Z" transform="translate(-179.312 -308.972)" fill="#2b3652"/>
      <path id="Path_2178" data-name="Path 2178" d="M486.225,310.658,445.06,404.737h-6.285l-41.312-94.092h21.425l23.1,56.011,22.963-56.011Z" transform="translate(-146.391 -308.981)" fill="#2b3652"/>
      <path id="Path_2179" data-name="Path 2179" d="M412.6,310.648h62.175v17.079H431.506v18.756h31.8v16.082H431.515v23.382h44.945v17.1H412.6Z" transform="translate(-53.131 -308.972)" fill="#2b3652"/>
      <path id="Path_2180" data-name="Path 2180" d="M481.511,403.061l-23.939-32.609H443.694v32.629H424.788V310.645h34.729c19.334,0,33.325,12.038,33.325,29.826a28.586,28.586,0,0,1-16.25,26.323l26.185,36.271Zm-37.817-49.273h15.827a13.254,13.254,0,1,0,0-26.5H443.694Z" transform="translate(21.968 -308.981)" fill="#2b3652"/>
      <path id="Path_2181" data-name="Path 2181" d="M450.29,375.928a26.939,26.939,0,0,0,22.678,13.442c8.263,0,13.17-3.918,13.17-10.212,0-5.447-2.933-7.425-11.77-11.456l-9.939-4.475c-14.134-6.311-22.405-14.322-22.405-26.616,0-15.81,13.162-26.172,30.669-26.172a33.254,33.254,0,0,1,30.526,17.5l-12.889,9.939a20.767,20.767,0,0,0-17.637-10.647c-6.587,0-11.456,3.222-11.456,8.959,0,4.907,2.933,7.161,10.777,10.656l10.5,4.609c15.537,6.868,22.828,14.565,22.828,27.023,0,16.941-13.861,27.727-32.344,27.727A40.285,40.285,0,0,1,437.3,385.775Z" transform="translate(99.032 -310.405)" fill="#2b3652"/>
      <path id="Path_2182" data-name="Path 2182" d="M450.109,310.648h18.906v92.4H450.109Z" transform="translate(177.951 -308.972)" fill="#2b3652"/>
      <path id="Path_2183" data-name="Path 2183" d="M485.045,327.727H455.47V310.648h78.136v17.079H503.918v75.324H485.061Z" transform="translate(210.981 -308.972)" fill="#2b3652"/>
      <path id="Path_2184" data-name="Path 2184" d="M518.789,366.672v36.392H499.883V366.793l-31.93-56.149h21L509.4,347.33,529.7,310.644h20.868Z" transform="translate(287.885 -308.984)" fill="#2b3652"/>
    </g>
  </g>
</svg>
